<?xml version="1.0" standalone="no"?>
<!DOCTYPE svg PUBLIC "-//W3C//DTD SVG 20010904//EN"
 "http://www.w3.org/TR/2001/REC-SVG-20010904/DTD/svg10.dtd">
<svg version="1.0" xmlns="http://www.w3.org/2000/svg"
 width="627.000000pt" height="433.000000pt" viewBox="0 0 627.000000 433.000000"
 preserveAspectRatio="xMidYMid meet">

<g transform="translate(0.000000,433.000000) scale(0.100000,-0.100000)"
fill="#000000" stroke="none">
<path d="M1540 3277 c-17 -8 -43 -48 -81 -122 -78 -151 -136 -268 -171 -344
-29 -63 -43 -69 -50 -21 -2 20 -10 26 -33 28 -25 2 -33 10 -49 48 -22 54 -82
107 -145 129 -54 18 -269 42 -294 32 -13 -5 -16 -13 -12 -30 6 -21 0 -27 -32
-44 -21 -11 -46 -34 -57 -52 -19 -34 -70 -221 -81 -300 -8 -62 7 -101 120
-305 51 -94 99 -183 105 -197 10 -23 6 -57 -30 -215 -82 -370 -148 -605 -196
-696 -32 -61 -74 -227 -70 -281 2 -39 25 -100 26 -69 0 8 7 38 16 68 l16 54
43 -47 44 -48 30 17 31 17 -5 -72 c-3 -66 -3 -68 6 -27 6 25 12 61 15 81 5 30
12 39 50 57 56 27 58 27 50 -3 -4 -14 -2 -25 4 -25 5 0 10 11 10 24 0 33 18
43 24 14 2 -13 8 -43 13 -67 l8 -44 45 64 c62 90 119 149 142 149 17 0 19 -4
12 -32 -4 -18 -8 -94 -9 -168 -1 -74 -5 -168 -10 -207 -5 -47 -4 -73 2 -73 11
0 23 138 23 274 0 113 16 218 36 229 8 4 21 21 29 37 20 39 45 40 44 3 l-1
-28 -8 25 -8 25 -1 -27 c-1 -16 4 -28 10 -28 7 0 8 -14 4 -39 -4 -25 -2 -41 5
-46 19 -12 23 2 23 76 l0 71 56 -3 c71 -3 87 5 111 50 l19 36 1 -43 c0 -26 8
-55 19 -70 30 -43 68 -124 76 -162 4 -19 11 -39 15 -45 4 -5 17 -43 29 -83 12
-39 26 -72 31 -72 15 0 18 -12 -41 170 -24 74 -31 130 -16 130 6 0 3 6 -6 13
-16 12 -18 39 -4 53 11 12 52 -33 55 -59 2 -29 46 -109 58 -108 5 1 9 -10 10
-22 1 -31 12 -47 31 -47 15 0 15 23 -2 62 -6 16 1 18 86 15 l94 -2 -3 -32 c-3
-28 0 -33 17 -33 14 0 21 6 21 20 0 16 7 20 36 20 23 0 42 -7 51 -17 13 -17
14 -16 8 5 -4 14 1 31 14 48 26 34 26 43 -4 287 -48 395 -57 448 -94 589 -21
79 -57 212 -79 297 -45 168 -53 185 -112 232 -26 21 -40 40 -40 56 0 53 -51
120 -142 187 l-37 28 49 99 c28 54 54 99 58 99 17 0 217 -102 280 -143 137
-89 261 -225 331 -364 30 -61 77 -205 122 -377 17 -65 25 -84 30 -70 13 32 39
256 39 330 -1 137 -63 343 -140 460 -47 72 -133 156 -326 317 -139 115 -141
118 -140 157 1 46 -26 80 -88 109 -59 27 -88 32 -116 18z m-1043 -2304 c-13
-43 -22 -26 -12 24 4 24 9 32 15 24 4 -7 3 -29 -3 -48z"/>
<path d="M2493 2320 c-17 -7 -23 -18 -23 -42 0 -38 -22 -116 -42 -147 -9 -16
-10 -25 -2 -39 10 -15 35 -17 274 -17 l263 0 19 26 c17 22 18 30 8 49 -9 17
-8 28 4 55 21 45 20 59 -8 92 l-24 28 -137 0 -137 0 -34 -39 -34 -39 -11 32
c-16 45 -64 62 -116 41z m91 -52 c7 -18 16 -42 20 -53 7 -18 12 -14 53 33 40
46 49 52 84 52 39 0 47 -7 30 -25 -11 -13 -41 -125 -41 -153 0 -20 -5 -22 -55
-22 -30 0 -55 4 -55 9 0 5 4 11 9 13 5 2 13 17 16 33 7 29 6 28 -26 -13 -43
-54 -69 -53 -85 3 l-12 40 -11 -27 c-6 -15 -8 -35 -5 -43 5 -12 -2 -15 -31
-15 -31 0 -35 2 -26 14 15 18 52 146 45 157 -10 17 8 29 42 29 30 0 37 -5 48
-32z m374 16 c25 -17 29 -56 8 -73 -10 -9 -12 -21 -5 -49 12 -52 12 -51 -18
-63 -19 -7 -35 -7 -51 1 -21 9 -24 16 -19 46 4 25 2 34 -6 31 -7 -2 -11 -20
-11 -41 l1 -36 -58 0 c-33 0 -59 4 -59 10 0 6 4 10 9 10 8 0 42 111 46 154 1
11 3 22 4 24 0 1 31 2 69 2 45 0 75 -5 90 -16z"/>
<path d="M2876 2244 c-4 -9 -4 -19 -2 -21 8 -8 26 8 26 23 0 19 -16 18 -24 -2z"/>
<path d="M3190 2317 c-15 -7 -41 -42 -64 -87 -22 -41 -48 -81 -58 -88 -21 -15
-24 -45 -5 -60 8 -7 243 -10 720 -10 614 0 710 2 723 15 13 14 17 14 32 0 13
-11 46 -15 135 -15 115 -1 119 0 148 26 24 22 31 36 31 66 0 20 6 50 14 64 19
37 18 79 -3 90 -17 8 -135 9 -158 1 -5 -1 -25 1 -42 5 -22 5 -42 3 -60 -6 -22
-11 -33 -11 -51 -2 -26 13 -346 12 -393 0 -15 -4 -29 -3 -33 2 -10 16 -155 6
-175 -12 -16 -15 -20 -15 -31 -2 -15 19 -71 30 -105 22 -14 -4 -39 -25 -55
-48 -29 -40 -30 -40 -24 -11 10 48 -11 61 -98 56 -92 -5 -99 -5 -181 0 -50 4
-76 0 -101 -12 -32 -17 -34 -17 -56 1 -26 21 -74 23 -110 5z m104 -33 c20 -19
20 -28 1 -90 -8 -27 -15 -59 -15 -71 0 -21 -5 -23 -56 -23 -55 0 -55 0 -40 22
21 30 20 38 -4 38 -19 0 -25 -14 -21 -47 1 -9 -12 -13 -39 -13 -40 0 -52 12
-26 27 7 4 28 37 46 73 18 36 39 73 48 83 19 22 85 23 106 1z m218 -15 c-2
-13 -10 -30 -18 -38 -12 -13 -17 -12 -37 7 -23 22 -47 29 -47 15 1 -5 19 -20
40 -35 42 -29 51 -59 28 -91 -17 -23 -67 -36 -102 -26 -16 4 -42 5 -57 2 -32
-6 -34 -1 -18 46 13 38 28 39 59 6 26 -27 40 -32 40 -12 0 6 -16 25 -35 40
-43 34 -46 67 -9 96 21 16 38 20 92 17 65 -2 67 -3 64 -27z m200 0 c-2 -13
-10 -30 -18 -38 -12 -13 -17 -12 -37 7 -23 22 -47 29 -47 15 1 -5 19 -20 40
-35 42 -29 51 -59 28 -91 -17 -23 -67 -36 -102 -26 -16 4 -42 5 -57 2 -32 -6
-34 -1 -18 46 13 38 28 39 59 6 26 -27 40 -32 40 -12 0 6 -16 25 -35 40 -43
34 -46 67 -9 96 21 16 38 20 92 17 65 -2 67 -3 64 -27z m192 12 c17 -19 17
-23 1 -78 -10 -32 -17 -68 -17 -80 0 -21 -5 -23 -54 -23 -30 0 -54 2 -54 5 0
3 7 17 16 30 15 24 15 25 -4 25 -22 0 -35 -22 -26 -45 5 -12 -3 -15 -40 -15
-45 0 -61 12 -31 23 8 4 30 37 49 75 19 38 42 77 51 86 23 23 87 21 109 -3z
m212 -16 c-9 -45 -22 -52 -49 -27 -13 12 -29 22 -35 22 -22 0 -12 -18 22 -40
45 -27 54 -55 28 -89 -18 -24 -25 -26 -101 -27 -87 -1 -90 1 -71 50 12 33 30
33 60 1 26 -27 40 -32 40 -12 0 6 -16 22 -35 35 -41 26 -48 69 -15 102 16 16
31 19 90 17 l71 -2 -5 -30z m200 0 c-9 -45 -22 -52 -49 -27 -13 12 -29 22 -35
22 -22 0 -12 -18 22 -40 45 -27 54 -55 28 -89 -18 -24 -25 -26 -101 -27 -87
-1 -90 1 -71 50 12 33 30 33 60 1 26 -27 40 -32 40 -12 0 6 -16 22 -35 35 -41
26 -48 69 -15 102 16 16 31 19 90 17 l71 -2 -5 -30z m138 26 c3 -5 0 -14 -7
-20 -8 -6 -22 -47 -33 -91 l-19 -80 -47 0 c-47 0 -57 6 -39 26 11 12 41 124
41 152 0 20 5 22 49 22 28 0 52 -4 55 -9z m114 -39 c13 -24 26 -41 28 -39 3 2
6 22 8 43 3 35 6 39 35 42 22 2 31 -1 31 -12 0 -8 -4 -17 -8 -20 -5 -3 -17
-36 -27 -73 -21 -80 -30 -93 -60 -93 -18 0 -28 11 -46 51 l-24 51 -12 -28 c-7
-16 -10 -39 -8 -51 5 -21 1 -23 -30 -23 -35 0 -43 7 -26 26 11 12 41 124 41
153 0 20 4 22 37 19 33 -3 41 -9 61 -46z m288 37 c7 -12 -18 -69 -30 -69 -7 0
-21 9 -31 20 -10 11 -25 20 -34 20 -10 0 0 -14 27 -38 47 -41 54 -70 22 -102
-16 -16 -32 -19 -100 -18 -44 0 -80 2 -80 5 0 12 30 73 36 73 5 0 21 -12 36
-27 19 -18 31 -24 38 -17 7 7 -3 21 -30 43 -46 37 -50 62 -16 96 22 22 33 24
91 23 37 -2 68 -5 71 -9z"/>
<path d="M3195 2220 c-13 -25 -13 -30 -1 -30 8 0 19 14 25 30 6 17 6 30 1 30
-5 0 -16 -13 -25 -30z"/>
<path d="M3802 2225 c-15 -33 -15 -35 2 -35 12 0 25 28 26 53 0 17 -18 5 -28
-18z"/>
<path d="M3526 1958 c-3 -7 -7 -43 -10 -80 -4 -54 -13 -83 -46 -142 -52 -94
-61 -154 -32 -219 21 -46 72 -92 132 -117 34 -14 60 -1 60 31 0 10 21 59 47
110 40 79 47 100 46 147 -2 72 -46 162 -113 231 -51 50 -77 63 -84 39z m88
-133 c31 -40 56 -105 56 -145 0 -15 -22 -70 -49 -123 l-49 -95 -30 18 c-77 47
-82 110 -17 237 25 48 45 100 45 115 0 37 12 35 44 -7z"/>
<path d="M3685 1890 c-4 -6 9 -42 29 -80 47 -88 50 -170 10 -245 -28 -53 -25
-78 8 -73 15 2 30 19 47 53 22 41 26 63 26 131 0 73 -4 88 -35 150 -25 49 -41
70 -57 72 -11 2 -24 -2 -28 -8z"/>
<path d="M3812 1558 c-6 -6 -12 -18 -12 -25 0 -7 -18 -33 -40 -57 -69 -75 -40
-122 32 -52 39 38 71 98 66 124 -4 21 -29 27 -46 10z"/>
<path d="M2548 1263 c-10 -2 -18 -8 -19 -11 -1 -4 -3 -24 -4 -44 -2 -20 -14
-60 -26 -88 -24 -56 -19 -73 22 -71 74 2 129 1 164 -4 25 -4 49 -1 65 8 21 11
31 11 63 -2 30 -11 45 -12 77 -2 31 9 45 9 62 0 14 -8 45 -9 92 -5 39 4 80 7
91 5 11 -1 114 -2 228 -3 224 -1 219 -2 234 53 3 13 1 32 -6 43 -6 10 -8 18
-3 18 4 0 13 -9 20 -21 11 -18 21 -20 68 -17 51 3 67 -3 44 -17 -17 -10 -11
-44 9 -54 10 -6 85 -9 171 -8 130 2 154 4 163 19 10 15 13 15 35 0 19 -13 58
-16 209 -16 163 -1 186 1 197 16 12 16 14 16 29 1 13 -14 37 -17 119 -17 59 0
112 5 124 12 12 6 25 7 30 2 8 -8 65 -13 127 -11 35 1 67 34 67 68 0 15 7 46
16 70 25 64 17 73 -67 73 -52 0 -77 -4 -90 -16 -16 -14 -20 -14 -44 2 -32 21
-191 28 -227 10 -18 -9 -28 -9 -46 0 -29 15 -380 12 -407 -3 -13 -7 -25 -6
-44 3 -30 16 -108 18 -145 4 -17 -6 -26 -17 -26 -32 0 -47 -12 -68 -36 -68
-28 0 -31 20 -9 53 22 35 5 52 -54 52 -63 0 -66 -3 -70 -74 -1 -12 -4 -12 -13
-3 -7 7 -33 12 -59 12 -44 0 -47 2 -52 29 -5 25 -13 31 -42 37 -38 7 -131 1
-142 -9 -3 -4 -7 -25 -9 -48 -4 -50 -5 -51 -38 -47 -25 3 -25 4 -11 32 23 43
19 64 -12 70 -48 9 -180 1 -195 -12 -10 -7 -18 -8 -24 -2 -17 17 -136 23 -164
8 -21 -12 -29 -12 -53 0 -19 10 -41 12 -65 7 -21 -4 -48 -6 -62 -5 -76 7 -91
3 -125 -30 l-35 -34 -11 31 c-12 37 -42 49 -91 36z m398 -36 c23 -20 26 -28
20 -59 -14 -74 -87 -123 -149 -99 -42 16 -51 53 -28 107 31 70 106 94 157 51z
m1302 12 c36 1 43 -20 18 -55 -14 -19 -15 -18 -41 6 -26 24 -27 25 -41 6 -22
-31 -17 -36 41 -36 30 0 55 -4 55 -10 0 -5 -4 -10 -10 -10 -5 0 -13 -15 -18
-32 -9 -35 -10 -35 -102 -40 -17 -1 -38 6 -47 15 -21 21 -22 77 -2 113 16 32
65 56 94 48 11 -4 35 -6 53 -5z m724 -1 c36 1 39 -1 34 -21 -3 -12 -6 -25 -6
-29 0 -14 -37 -8 -50 7 -13 16 -30 20 -30 7 0 -4 13 -16 29 -25 38 -22 47 -51
27 -82 -15 -23 -22 -25 -91 -23 -41 0 -75 2 -75 3 0 1 5 16 11 34 13 37 25 39
56 9 13 -12 26 -18 30 -14 4 4 -7 18 -25 32 -31 25 -40 55 -24 81 9 15 54 32
65 26 5 -3 27 -5 49 -5z m-2340 -44 l13 -46 34 46 c32 43 38 46 79 46 36 0 42
-2 33 -14 -14 -17 -41 -104 -41 -133 0 -21 -5 -23 -51 -23 -50 0 -50 0 -35 22
28 39 17 53 -11 15 -36 -47 -58 -47 -74 0 -11 34 -13 36 -20 15 -5 -12 -6 -29
-3 -37 5 -11 -1 -15 -25 -15 -31 0 -38 8 -22 26 14 14 40 115 34 130 -4 11 5
14 35 14 40 0 41 -1 54 -46z m522 27 c14 -15 15 -24 6 -40 -6 -12 -15 -21 -20
-21 -6 0 -5 -8 2 -19 9 -15 8 -24 -5 -45 -17 -25 -22 -26 -102 -26 -75 0 -102
8 -77 24 10 6 37 115 33 134 -1 9 18 12 72 12 60 0 77 -4 91 -19z m126 14 c0
-3 -4 -13 -10 -23 -18 -33 -39 -121 -29 -127 11 -7 27 31 42 103 l11 52 47 0
46 0 -17 -37 c-23 -47 -35 -103 -22 -103 5 0 17 9 27 20 26 29 49 26 42 -6 -8
-43 10 -12 26 45 9 29 13 60 10 67 -4 11 11 14 76 14 63 0 81 -3 81 -14 0 -25
-12 -46 -25 -46 -18 0 -30 -40 -15 -50 6 -4 10 -18 8 -31 l-3 -24 -217 -3
-217 -2 13 26 c8 14 20 52 27 85 l13 59 43 0 c24 0 43 -2 43 -5z m582 -7 c-12
-16 -43 -121 -36 -127 2 -2 14 5 27 17 31 30 47 28 48 -5 1 -20 6 -12 20 32
10 33 19 68 19 78 0 15 10 17 74 17 41 0 77 -3 79 -7 8 -14 -12 -53 -27 -53
-19 0 -28 -41 -11 -54 9 -8 11 -18 4 -33 -8 -23 -12 -23 -169 -23 -88 0 -160
4 -160 8 0 4 4 12 9 18 11 12 35 104 34 126 -2 15 7 18 49 18 39 0 48 -3 40
-12z m598 -5 c0 -23 -11 -38 -32 -46 -20 -7 -24 -43 -6 -49 7 -3 9 -14 4 -31
-6 -27 -8 -27 -86 -27 -77 0 -90 5 -71 26 11 12 35 104 34 126 -2 16 8 18 78
18 69 0 79 -2 79 -17z m98 -13 c22 -38 32 -38 32 0 0 27 3 30 30 30 33 0 34
-2 20 -28 -5 -9 -17 -44 -27 -77 -16 -52 -21 -60 -43 -60 -18 0 -30 10 -46 38
-22 41 -34 34 -34 -19 0 -20 -5 -24 -30 -24 -30 0 -37 8 -21 26 11 12 35 104
34 126 -1 14 6 18 33 18 28 0 38 -6 52 -30z m254 13 c22 -20 23 -54 3 -98 -21
-42 -51 -55 -135 -55 l-69 0 15 28 c8 15 19 53 26 85 l12 57 65 0 c46 0 70 -5
83 -17z m-1089 -50 c15 -14 -18 -33 -59 -33 -42 0 -57 14 -37 33 8 9 88 9 96
0z"/>
<path d="M2864 1174 c-8 -20 -14 -48 -12 -63 3 -25 3 -26 15 -5 18 31 33 104
21 104 -5 0 -16 -16 -24 -36z"/>
<path d="M4162 1134 c1 -9 9 -19 16 -22 9 -3 13 2 10 14 -1 9 -9 19 -16 22 -9
3 -13 -2 -10 -14z"/>
<path d="M3066 1194 c-9 -24 -7 -28 9 -14 17 14 20 30 6 30 -5 0 -12 -7 -15
-16z"/>
<path d="M3046 1124 c-4 -9 -4 -19 -2 -21 8 -8 26 8 26 23 0 19 -16 18 -24 -2z"/>
<path d="M3527 1191 c-4 -17 -2 -18 14 -8 22 14 25 27 5 27 -7 0 -16 -9 -19
-19z"/>
<path d="M3507 1119 c-6 -22 15 -26 32 -5 9 11 7 15 -8 19 -13 3 -21 -1 -24
-14z"/>
<path d="M4010 1196 c0 -9 7 -12 20 -9 11 3 17 9 14 14 -8 14 -34 10 -34 -5z"/>
<path d="M3990 1120 c0 -23 13 -26 29 -6 9 11 8 15 -5 20 -23 9 -24 8 -24 -14z"/>
<path d="M4376 1194 c-9 -24 -8 -25 14 -12 23 15 26 28 6 28 -8 0 -17 -7 -20
-16z"/>
<path d="M4356 1123 c-8 -21 -8 -23 8 -23 7 0 19 6 25 14 9 11 7 15 -8 19 -12
3 -22 -1 -25 -10z"/>
<path d="M4733 1190 c-18 -42 -25 -90 -15 -90 14 0 34 64 30 92 l-4 23 -11
-25z"/>
<path d="M1481 1084 c0 -11 3 -14 6 -6 3 7 2 16 -1 19 -3 4 -6 -2 -5 -13z"/>
<path d="M1400 1048 c0 -9 5 -20 10 -23 13 -8 13 5 0 25 -8 13 -10 13 -10 -2z"/>
<path d="M1229 982 c5 -10 17 -25 26 -32 13 -11 13 -8 -2 18 -19 33 -41 46
-24 14z"/>
<path d="M1320 951 c0 -11 4 -22 8 -25 14 -9 35 12 29 28 -9 23 -37 20 -37 -3z"/>
<path d="M781 844 c0 -11 3 -14 6 -6 3 7 2 16 -1 19 -3 4 -6 -2 -5 -13z"/>
<path d="M585 820 c3 -5 8 -10 11 -10 2 0 4 5 4 10 0 6 -5 10 -11 10 -5 0 -7
-4 -4 -10z"/>
<path d="M651 694 c0 -11 3 -14 6 -6 3 7 2 16 -1 19 -3 4 -6 -2 -5 -13z"/>
</g>
</svg>
